<svg width="33" height="32" viewBox="0 0 33 32" fill="none" xmlns="http://www.w3.org/2000/svg">
    <path fill-rule="evenodd" clip-rule="evenodd" d="M16.4001 0C7.34373 0 0 7.34466 0 16.405C0 23.6533 4.69911 29.8026 11.2154 31.9718C12.035 32.1236 12.336 31.6159 12.336 31.1826C12.336 30.7915 12.3207 29.4991 12.3137 28.1283C7.75107 29.1207 6.78833 26.1927 6.78833 26.1927C6.04232 24.2965 4.96742 23.7924 4.96742 23.7924C3.47951 22.7742 5.07958 22.795 5.07958 22.795C6.72646 22.9108 7.59364 24.4856 7.59364 24.4856C9.05634 26.9936 11.4302 26.2685 12.3661 25.8494C12.5132 24.789 12.9383 24.0654 13.4073 23.6558C9.76467 23.2408 5.9353 21.8342 5.9353 15.5483C5.9353 13.7573 6.57598 12.2938 7.62515 11.1449C7.45486 10.7317 6.89354 9.0632 7.784 6.80351C7.784 6.80351 9.16117 6.36259 12.2952 8.48512C13.6033 8.12152 15.0063 7.93934 16.4001 7.93316C17.7938 7.93934 19.1979 8.12152 20.5085 8.48512C23.6388 6.36259 25.0141 6.80351 25.0141 6.80351C25.9067 9.0632 25.3451 10.7317 25.1748 11.1449C26.2263 12.2938 26.8626 13.7572 26.8626 15.5483C26.8626 21.8491 23.0261 23.2366 19.3742 23.6426C19.9624 24.1518 20.4865 25.1502 20.4865 26.6806C20.4865 28.8756 20.4675 30.6422 20.4675 31.1826C20.4675 31.6192 20.7627 32.1307 21.5941 31.9696C28.1068 29.798 32.8 23.6509 32.8 16.405C32.8 7.34466 25.4573 0 16.4001 0Z" fill="black"/>
    <path d="M6.15033 23.3648C6.11457 23.4465 5.98713 23.471 5.87131 23.415C5.75319 23.3613 5.68679 23.2498 5.72509 23.1677C5.76021 23.0835 5.88765 23.06 6.00552 23.1166C6.12389 23.1701 6.19132 23.2827 6.15033 23.3648ZM6.95124 24.0871C6.8736 24.1599 6.72177 24.1261 6.61872 24.0111C6.51222 23.8963 6.4923 23.743 6.57109 23.669C6.65116 23.5964 6.79839 23.6303 6.90514 23.7452C7.01164 23.8612 7.03233 24.0137 6.95112 24.0873M7.50072 25.0113C7.40087 25.0814 7.23767 25.0157 7.13692 24.8694C7.03718 24.7231 7.03718 24.5476 7.13909 24.4772C7.24022 24.4069 7.40087 24.4701 7.50302 24.6153C7.60263 24.7642 7.60263 24.9397 7.5006 25.0115M8.42985 26.0818C8.34059 26.1812 8.15058 26.1546 8.01139 26.0188C7.86913 25.8861 7.82942 25.6978 7.91893 25.5983C8.00922 25.4986 8.20038 25.5266 8.34059 25.6613C8.48195 25.7937 8.52511 25.9835 8.42998 26.0818M9.63072 26.4432C9.59151 26.5721 9.40839 26.6307 9.224 26.5759C9.03986 26.5195 8.91931 26.3685 8.95647 26.2383C8.99478 26.1085 9.17867 26.0475 9.36447 26.1061C9.54835 26.1622 9.66915 26.3121 9.63084 26.4432M10.9976 26.5965C11.0022 26.7322 10.8458 26.8448 10.6522 26.8473C10.4574 26.8515 10.3 26.7417 10.2979 26.6082C10.2979 26.4711 10.4508 26.3596 10.6454 26.3564C10.839 26.3525 10.9976 26.4616 10.9976 26.5965ZM12.3402 26.5444C12.3634 26.6769 12.2288 26.8129 12.0367 26.8491C11.8477 26.8839 11.6727 26.8022 11.6486 26.6709C11.6251 26.5351 11.7622 26.3992 11.9508 26.364C12.1434 26.3302 12.3157 26.4098 12.3402 26.5444Z" fill="black"/>
</svg>
